<svg xmlns="http://www.w3.org/2000/svg" xmlns:xlink="http://www.w3.org/1999/xlink" version="1.1" x="0px" y="0px" viewBox="0 0 64 80" fill="#53AC6A" enable-background="new 0 0 64 64" xml:space="preserve"><g><path d="M61,16c-2.757,0-5,2.243-5,5v16v10c0,0.552,0.447,1,1,1h4c0.553,0,1-0.448,1-1V37V17C62,16.448,61.553,16,61,16z M58,21   c0-1.304,0.836-2.416,2-2.829V36h-2V21z M60,46h-2v-8h2V46z"/><path d="M32,12c-11.028,0-20,8.972-20,20s8.972,20,20,20s20-8.972,20-20S43.028,12,32,12z M32,50c-9.925,0-18-8.075-18-18   s8.075-18,18-18s18,8.075,18,18S41.925,50,32,50z"/><path d="M32,19c-7.168,0-13,5.832-13,13s5.832,13,13,13s13-5.832,13-13S39.168,19,32,19z M32,43c-6.065,0-11-4.935-11-11   s4.935-11,11-11s11,4.935,11,11S38.065,43,32,43z"/><path d="M9,25c1.654,0,3-1.346,3-3v-6h-2v6c0,0.551-0.448,1-1,1H8v-7H6v7H5c-0.552,0-1-0.449-1-1v-6H2v6c0,1.654,1.346,3,3,3h1v11   H5c-0.553,0-1,0.448-1,1v10c0,0.552,0.447,1,1,1h4c0.553,0,1-0.448,1-1V37c0-0.552-0.447-1-1-1H8V25H9z M8,46H6v-8h2V46z"/></g><text x="0" y="84" fill="#000000" font-size="5px" font-weight="bold" font-family="'Helvetica Neue', Helvetica, Arial-Unicode, Arial, Sans-serif">from the Noun Project</text></svg>