<svg xmlns="http://www.w3.org/2000/svg" data-name="Layer 1" fill="#FFFFFF" viewBox="0 0 32 40" x="0px" y="0px"><title>Light Theme</title><path d="M16,23a7,7,0,1,1,7-7A7,7,0,0,1,16,23Zm0-12a5,5,0,1,0,5,5A5,5,0,0,0,16,11Zm1-4V2a1,1,0,0,0-2,0V7a1,1,0,0,0,2,0Zm-6.66,3.34a1,1,0,0,0,0-1.41L6.81,5.39A1,1,0,0,0,5.39,6.81l3.54,3.54a1,1,0,0,0,1.41,0ZM8,16a1,1,0,0,0-1-1H2a1,1,0,0,0,0,2H7A1,1,0,0,0,8,16ZM6.81,26.61l3.54-3.54a1,1,0,0,0-1.41-1.41L5.39,25.19a1,1,0,1,0,1.41,1.41ZM17,30V25a1,1,0,0,0-2,0v5a1,1,0,0,0,2,0Zm9.61-3.39a1,1,0,0,0,0-1.41l-3.54-3.54a1,1,0,0,0-1.41,1.41l3.54,3.54a1,1,0,0,0,1.41,0ZM31,16a1,1,0,0,0-1-1H25a1,1,0,0,0,0,2h5A1,1,0,0,0,31,16Zm-7.93-5.66,3.54-3.54a1,1,0,0,0-1.41-1.41L21.66,8.93a1,1,0,1,0,1.41,1.41Z"/><text x="0" y="47" fill="#FFFFFF" font-size="5px" font-weight="bold" font-family="'Helvetica Neue', Helvetica, Arial-Unicode, Arial, Sans-serif">Created by Yoyon Pujiyono</text><text x="0" y="52" fill="#000000" font-size="5px" font-weight="bold" font-family="'Helvetica Neue', Helvetica, Arial-Unicode, Arial, Sans-serif">from the Noun Project</text></svg>