<svg xmlns="http://www.w3.org/2000/svg" xmlns:xlink="http://www.w3.org/1999/xlink" version="1.0" x="0px" y="0px" viewBox="0 0 32 40" fill="#53AC6A" style="enable-background:new 0 0 32 32;" xml:space="preserve"><style type="text/css">
	.st0{fill:#37C8AB;stroke:#383747;stroke-width:0.797;stroke-linecap:round;stroke-linejoin:round;stroke-miterlimit:10;}
	.st1{fill:#F2F2F1;stroke:#383747;stroke-width:0.797;stroke-linecap:round;stroke-linejoin:round;stroke-miterlimit:10;}
	.st2{fill:#FED42A;stroke:#383747;stroke-width:0.797;stroke-linecap:round;stroke-linejoin:round;stroke-miterlimit:10;}
	.st3{fill:none;stroke:#383747;stroke-width:0.797;stroke-linecap:round;stroke-linejoin:round;stroke-miterlimit:10;}
	.st4{fill:#FFFFFF;}
	.st5{fill:#383747;}
	.st6{fill:#FF5555;stroke:#383747;stroke-width:0.797;stroke-linecap:round;stroke-linejoin:round;stroke-miterlimit:10;}
	.st7{fill:#8E5FD3;stroke:#383747;stroke-width:0.797;stroke-linecap:round;stroke-linejoin:round;stroke-miterlimit:10;}
	.st8{fill:#383747;stroke:#383747;stroke-width:0.797;stroke-linecap:round;stroke-linejoin:round;stroke-miterlimit:10;}
	.st9{fill:none;stroke:#383747;stroke-width:0.797;stroke-miterlimit:282;}
	.st10{fill:none;stroke:#383747;stroke-width:0.797;stroke-linecap:round;stroke-linejoin:round;stroke-miterlimit:282;}
	.st11{fill:#FF5555;stroke:#383747;stroke-width:0.797;stroke-linecap:round;stroke-linejoin:round;stroke-miterlimit:282;}
	.st12{fill:#FED42A;stroke:#383747;stroke-width:0.797;stroke-linecap:round;stroke-linejoin:round;stroke-miterlimit:282;}
	.st13{fill:#8E5FD3;stroke:#383747;stroke-width:0.797;stroke-linecap:round;stroke-linejoin:round;stroke-miterlimit:282;}
	.st14{fill:#FED42A;}
	.st15{fill:#37C8AB;stroke:#383747;stroke-width:0.797;stroke-linecap:round;stroke-linejoin:round;stroke-miterlimit:282;}
	.st16{fill:#2A7FFE;stroke:#383747;stroke-width:0.797;stroke-linecap:round;stroke-linejoin:round;stroke-miterlimit:282;}
	.st17{fill:none;stroke:#FFFFFF;stroke-width:0.797;stroke-linecap:round;stroke-linejoin:round;stroke-miterlimit:282;}
	.st18{fill:#FF297F;stroke:#383747;stroke-width:0.9678;stroke-linecap:round;stroke-linejoin:round;stroke-miterlimit:282;}
	.st19{fill:#FED42A;stroke:#383747;stroke-width:0.7401;stroke-linecap:round;stroke-linejoin:round;stroke-miterlimit:282;}
	.st20{fill:#FED42A;stroke:#383747;stroke-width:0.6262;stroke-linecap:round;stroke-linejoin:round;stroke-miterlimit:282;}
	.st21{fill:none;stroke:#FED42A;stroke-width:0.797;stroke-linecap:round;stroke-linejoin:round;stroke-miterlimit:282;}
	.st22{fill:#FF5555;}
	.st23{fill:none;stroke:#383747;stroke-width:0.797;stroke-linejoin:round;stroke-miterlimit:282;}
	.st24{fill:none;stroke:#37C8AB;stroke-width:0.797;stroke-linecap:round;stroke-linejoin:round;stroke-miterlimit:282;}
	.st25{fill:none;stroke:#2A7FFE;stroke-width:0.797;stroke-linecap:round;stroke-linejoin:round;stroke-miterlimit:282;}
	.st26{fill:none;stroke:#FF5555;stroke-width:0.797;stroke-linecap:round;stroke-linejoin:round;stroke-miterlimit:282;}
	.st27{fill:none;stroke:#8E5FD3;stroke-width:0.797;stroke-linecap:round;stroke-linejoin:round;stroke-miterlimit:282;}
	.st28{fill:#FF297F;stroke:#383747;stroke-width:0.797;stroke-linecap:round;stroke-linejoin:round;stroke-miterlimit:282;}
	.st29{fill:#F2F2F1;}
	.st30{fill:#FFFFFF;stroke:#383747;stroke-width:0.797;stroke-linecap:round;stroke-linejoin:round;stroke-miterlimit:282;}
	.st31{fill:none;stroke:#383747;stroke-width:0.797;stroke-linecap:round;stroke-miterlimit:282;}
	.st32{fill:#FF297F;stroke:#FFFFFF;stroke-width:0.797;stroke-linecap:round;stroke-linejoin:round;stroke-miterlimit:282;}
	.st33{fill:none;stroke:#FF297F;stroke-width:0.797;stroke-linecap:round;stroke-linejoin:round;stroke-miterlimit:282;}
	.st34{fill:#FF5555;stroke:#383747;stroke-width:0.797;stroke-miterlimit:282;}
	.st35{fill:#2571E2;stroke:#383747;stroke-width:0.797;stroke-linecap:round;stroke-linejoin:round;stroke-miterlimit:282;}
	.st36{fill-rule:evenodd;clip-rule:evenodd;}
</style><path d="M15.3,3.8C8.6,3.8,3.1,9.3,3.1,16c0,6.7,5.5,12.1,12.2,12.1c6.7,0,12.2-5.4,12.2-12.1c0-0.2,0-0.3,0-0.5H28  c0.2,0,0.3-0.1,0.4-0.3c1.3-3.5-0.3-7.4-3.6-9.1c-0.1-0.1-0.2-0.1-0.2-0.1c-0.1,0-0.2,0.1-0.3,0.1l-0.8,0.9  C21.4,5.1,18.5,3.8,15.3,3.8L15.3,3.8z M15.3,4.7c3,0,5.7,1.1,7.7,3L21.8,9c-1.7-1.6-4-2.6-6.5-2.6c-5.3,0-9.6,4.3-9.6,9.6  c0,5.3,4.3,9.6,9.6,9.6c5.3,0,9.6-4.3,9.6-9.6c0-0.2,0-0.3,0-0.5l1.8,0c0,0.2,0,0.3,0,0.5c0,6.3-5.1,11.3-11.4,11.3  C9,27.4,4,22.3,4,16S9,4.7,15.3,4.7L15.3,4.7z M24.7,7c2.7,1.5,4,4.7,3,7.7l-9.9,0.1l6-6.9L24.7,7L24.7,7z M12.8,8.6  c0.1,0,0.5,0,0.6,0.2c0.2,0.2,0.2,0.5,0.1,0.7c-0.1,0.2-0.2,0.4-0.4,0.5c-0.3,0.3-0.7,0.5-1.1,0.4c-0.3,0-0.5-0.1-0.6-0.3  c-0.2-0.2-0.3-0.4-0.2-0.7C11.3,9.2,11.4,9,11.6,9c0.1,0,0.3,0,0.4,0c0.2,0,0.4,0,0.4,0c-0.1,0,0.1-0.1,0.3-0.2  C12.6,8.7,12.7,8.6,12.8,8.6L12.8,8.6z M24.6,8.8c-0.5,0-1,0.5-1,1c0,0.6,0.4,1,1,1c0.5,0,1-0.4,1-1C25.7,9.3,25.2,8.8,24.6,8.8  L24.6,8.8z M16.1,9.3c0.2-0.1,0.4,0,0.5,0.1c0.1,0.1,0.2,0.2,0.2,0.3c0.1,0.2,0.2,0.3,0.2,0.3c-0.1-0.1,0.1,0,0.3,0.1  c0.1,0,0.2,0.1,0.3,0.1c0.1,0.1,0.2,0.4,0.1,0.6c-0.1,0.3-0.3,0.4-0.5,0.5c-0.2,0.1-0.4,0-0.6,0c-0.4-0.1-0.8-0.3-1-0.7  c-0.1-0.3-0.1-0.5-0.1-0.7C15.6,9.6,15.8,9.4,16.1,9.3L16.1,9.3z M24.6,9.6c0.1,0,0.2,0.1,0.2,0.2c0,0.1-0.1,0.2-0.2,0.2  c-0.1,0-0.2-0.1-0.2-0.2C24.5,9.7,24.5,9.6,24.6,9.6L24.6,9.6z M25.7,11.7c-0.3,0-0.5,0.2-0.6,0.3c-0.1,0.2-0.3,0.4-0.2,0.7  c0.1,0.2,0.3,0.3,0.4,0.4c0.1,0.1,0.3,0.1,0.4,0.1c0.2,0,0.4,0,0.4,0c-0.1,0,0.1,0.1,0.2,0.2c0.1,0.1,0.1,0.1,0.3,0.2  c0.2,0,0.5,0,0.6-0.2c0.1-0.2,0.1-0.5,0.1-0.7c-0.1-0.2-0.2-0.4-0.3-0.5C26.5,11.9,26.1,11.7,25.7,11.7L25.7,11.7z M21.5,11.9  c-0.1,0-0.1,0-0.2,0c-0.1,0-0.2,0.1-0.3,0.2c-0.2,0.3-0.2,0.6-0.1,0.9c0.1,0.3,0.3,0.5,0.5,0.6c0.4,0.4,0.9,0.7,1.5,0.6  c0.3,0,0.6-0.2,0.8-0.4c0.2-0.2,0.3-0.5,0.2-0.9c-0.1-0.2-0.3-0.4-0.5-0.4s-0.3-0.1-0.5-0.1c-0.3,0-0.5,0-0.6,0c0,0-0.2-0.1-0.4-0.3  c-0.1-0.1-0.2-0.2-0.4-0.2C21.6,11.9,21.6,11.9,21.5,11.9L21.5,11.9z M11.9,12.2c0.5,0,1,0.5,1,1c0,0.5-0.5,1-1,1c-0.5,0-1-0.4-1-1  C10.9,12.6,11.4,12.2,11.9,12.2L11.9,12.2z M22.2,13.2c0.3,0.1,0.6,0.1,0.7,0.1c0.1,0,0.1,0,0.1,0c0,0,0,0,0,0.1  c-0.1,0.1-0.2,0.1-0.2,0.1C22.8,13.5,22.5,13.3,22.2,13.2L22.2,13.2z M8.8,14c0.1,0,0.2,0,0.3,0c0.2,0.1,0.5,0.2,0.6,0.4  c0.1,0.2,0,0.5-0.1,0.6c-0.1,0.1-0.2,0.1-0.3,0.2c-0.2,0.1-0.3,0.1-0.3,0.1c0,0-0.1,0.2-0.2,0.3c-0.1,0.1-0.1,0.2-0.2,0.3  c-0.1,0.1-0.3,0.2-0.5,0.2c-0.3-0.1-0.5-0.3-0.5-0.6c-0.1-0.2-0.1-0.5,0.1-0.7c0.2-0.4,0.6-0.6,0.9-0.7C8.6,14.1,8.7,14.1,8.8,14  L8.8,14z M14.9,14c0.3,0,0.5,0.2,0.6,0.3c0.2,0.2,0.3,0.4,0.2,0.7c-0.1,0.2-0.2,0.3-0.4,0.4c-0.1,0-0.3,0-0.4,0c-0.2,0-0.4,0-0.4,0  c0,0-0.1,0.1-0.2,0.2c-0.1,0-0.1,0.1-0.3,0.2c-0.1,0-0.4-0.1-0.5-0.2c-0.2-0.2-0.2-0.5-0.1-0.7c0.1-0.2,0.2-0.3,0.4-0.5  C14,14.2,14.4,14,14.9,14L14.9,14z M16.9,17c0.1,0,0.2,0,0.3,0c0.2,0,0.5,0.2,0.6,0.4c0.1,0.2,0,0.5-0.1,0.6  c-0.1,0.1-0.2,0.1-0.3,0.2c-0.1,0.1-0.3,0.1-0.3,0.1c0,0-0.1,0.1-0.2,0.3c-0.1,0.1-0.1,0.2-0.2,0.3c-0.1,0.1-0.3,0.2-0.5,0.1  c-0.3-0.1-0.5-0.3-0.5-0.5c-0.1-0.2-0.1-0.5,0-0.7c0.2-0.4,0.6-0.6,0.9-0.7C16.7,17,16.8,17,16.9,17L16.9,17z M11.3,17.1  c0.2,0,0.4,0.1,0.6,0.2c0.2,0.1,0.4,0.3,0.4,0.6c0,0.1-0.1,0.3-0.2,0.4l0,0c0,0,0,0.1-0.1,0.1c-0.1,0.1-0.3,0.1-0.4,0.1  c-0.2,0-0.3,0-0.3,0c0,0-0.1,0.1-0.3,0.2c-0.1,0.1-0.1,0.1-0.3,0.2c-0.1,0.1-0.4,0.1-0.6,0c-0.3-0.2-0.3-0.5-0.3-0.7  c0-0.2,0.1-0.5,0.3-0.6C10.5,17.2,10.9,17.1,11.3,17.1L11.3,17.1z M21.2,18.7c0.5,0,1,0.4,1,1s-0.5,1-1,1c-0.5,0-1-0.5-1-1  S20.7,18.7,21.2,18.7L21.2,18.7z M17.9,20.1c0.5,0,1,0.5,1,1c0,0.5-0.5,1-1,1c-0.5,0-1-0.4-1-1C16.9,20.5,17.3,20.1,17.9,20.1  L17.9,20.1z M12.8,21.2c0.1,0,0.1,0,0.1,0c0.2,0,0.2,0.1,0.3,0.2c0.1,0.1,0.3,0.2,0.2,0.2c0,0,0.2,0,0.4,0c0.1,0,0.2,0,0.3,0.1  c0.1,0.1,0.3,0.2,0.4,0.3c0.1,0.3,0,0.6-0.2,0.8c-0.1,0.2-0.3,0.3-0.6,0.3c-0.4,0-0.8-0.2-1.1-0.5c-0.2-0.1-0.3-0.3-0.4-0.5  c-0.1-0.2-0.1-0.5,0.1-0.7C12.4,21.3,12.6,21.2,12.8,21.2L12.8,21.2z"/><text x="0" y="47" fill="#000000" font-size="5px" font-weight="bold" font-family="'Helvetica Neue', Helvetica, Arial-Unicode, Arial, Sans-serif">Created by Chameleon Design</text><text x="0" y="52" fill="#000000" font-size="5px" font-weight="bold" font-family="'Helvetica Neue', Helvetica, Arial-Unicode, Arial, Sans-serif">from the Noun Project</text></svg>