<svg xmlns="http://www.w3.org/2000/svg" fill="#53AC6A" viewBox="0 0 64 80" x="0px" y="0px"><title>13, truck, delivery, package, transportation, cargo, logistic, </title><g data-name="Layer 2"><circle cx="14" cy="47" r="1.5"/><circle cx="48" cy="47" r="1.5"/><path d="M56,32h-.22l-2.05-8.21A5,5,0,0,0,48.88,20H39V14a1,1,0,0,0-1-1H4a1,1,0,0,0-1,1V43a5,5,0,0,0,5,5h.09a6,6,0,0,0,11.82,0H42.09a6,6,0,0,0,11.82,0H56a5,5,0,0,0,5-5V37A5,5,0,0,0,56,32ZM37,15V38H5V15ZM14,51a4,4,0,1,1,4-4A4,4,0,0,1,14,51Zm0-10a6,6,0,0,0-5.91,5H8a3,3,0,0,1-3-3V40H37v6H19.91A6,6,0,0,0,14,41ZM48,51a4,4,0,1,1,4-4A4,4,0,0,1,48,51Zm11-8a3,3,0,0,1-3,3H53.91a6,6,0,0,0-11.82,0H39V22h9.88a3,3,0,0,1,2.91,2.27l2.24,9A1,1,0,0,0,55,34h1a3,3,0,0,1,3,3Z"/><path d="M49.85,24.76a1,1,0,0,0-1-.76H42a1,1,0,0,0-1,1v8a1,1,0,0,0,1,1h8.88a1,1,0,0,0,1-1.24ZM43,32V26h5.1l1.5,6Z"/></g><text x="0" y="79" fill="#000000" font-size="5px" font-weight="bold" font-family="'Helvetica Neue', Helvetica, Arial-Unicode, Arial, Sans-serif"></text><text x="0" y="84" fill="#000000" font-size="5px" font-weight="bold" font-family="'Helvetica Neue', Helvetica, Arial-Unicode, Arial, Sans-serif">from the Noun Project</text></svg>